<svg width="149" height="24" viewBox="0 0 149 24" fill="none" xmlns="http://www.w3.org/2000/svg">
<g opacity="0.25" filter="url(#filter0_f_1318_6)">
<rect x="111.578" y="4" width="33" height="14" rx="4" fill="#E3E3ED"/>
<path d="M25.44 4H19.04L14.72 12L10.4 4H3.99999V18H9.19999V11.34L13.02 18H16.42L20.24 11.34V18H25.44V4ZM28.3127 9.2V13.2H44.3127V9.2H28.3127ZM58.1771 4H47.1771V18H52.3771V14.72H58.1771C61.3571 14.72 63.5371 12.48 63.5371 9.36C63.5371 6.24 61.3571 4 58.1771 4ZM57.1771 10.32H52.3771V8.4H57.1771C57.6971 8.4 58.3371 8.4 58.3371 9.36C58.3371 10.32 57.6971 10.32 57.1771 10.32ZM76.5992 18H82.3192L76.5192 4H68.7992L62.9992 18H68.7192L69.6792 15.48H75.6392L76.5992 18ZM71.0392 11.88L72.6592 7.6L74.2792 11.88H71.0392ZM94.7971 4H84.3971V18H94.7971C98.1771 18 101.357 15.76 101.357 11C101.357 6.24 98.1771 4 94.7971 4ZM93.1971 13.6H89.5971V8.4H93.1971C94.3171 8.4 96.1571 8.4 96.1571 11C96.1571 13.6 94.3171 13.6 93.1971 13.6Z" fill="#E3E3ED"/>
</g>
<rect x="111.578" y="4" width="33" height="14" rx="4" fill="#E3E3ED"/>
<path d="M25.44 4H19.04L14.72 12L10.4 4H3.99999V18H9.19999V11.34L13.02 18H16.42L20.24 11.34V18H25.44V4ZM28.3127 9.2V13.2H44.3127V9.2H28.3127ZM58.1771 4H47.1771V18H52.3771V14.72H58.1771C61.3571 14.72 63.5371 12.48 63.5371 9.36C63.5371 6.24 61.3571 4 58.1771 4ZM57.1771 10.32H52.3771V8.4H57.1771C57.6971 8.4 58.3371 8.4 58.3371 9.36C58.3371 10.32 57.6971 10.32 57.1771 10.32ZM76.5992 18H82.3192L76.5192 4H68.7992L62.9992 18H68.7192L69.6792 15.48H75.6392L76.5992 18ZM71.0392 11.88L72.6592 7.6L74.2792 11.88H71.0392ZM94.7971 4H84.3971V18H94.7971C98.1771 18 101.357 15.76 101.357 11C101.357 6.24 98.1771 4 94.7971 4ZM93.1971 13.6H89.5971V8.4H93.1971C94.3171 8.4 96.1571 8.4 96.1571 11C96.1571 13.6 94.3171 13.6 93.1971 13.6Z" fill="#E3E3ED"/>
<path d="M121.588 8.4H117.188V14H119.268V12.688H121.588C122.86 12.688 123.732 11.792 123.732 10.544C123.732 9.296 122.86 8.4 121.588 8.4ZM121.188 10.928H119.268V10.16H121.188C121.396 10.16 121.652 10.16 121.652 10.544C121.652 10.928 121.396 10.928 121.188 10.928ZM131.18 10.544C131.18 9.296 130.308 8.4 129.036 8.4H124.636V14H126.716V12.688H127.94L128.716 14H131.18L130.188 12.392C130.804 12.032 131.18 11.36 131.18 10.544ZM126.716 10.16H128.636C128.844 10.16 129.1 10.16 129.1 10.544C129.1 10.928 128.844 10.928 128.636 10.928H126.716V10.16ZM135.524 14.08C137.98 14.08 139.044 13.136 139.044 11.192C139.044 9.256 137.98 8.32 135.524 8.32C133.06 8.32 132.004 9.248 132.004 11.192C132.004 13.144 133.06 14.08 135.524 14.08ZM135.524 12.32C134.3 12.32 134.084 11.792 134.084 11.192C134.084 10.6 134.292 10.08 135.524 10.08C136.756 10.08 136.964 10.608 136.964 11.192C136.964 11.784 136.748 12.32 135.524 12.32Z" fill="#212132"/>
<defs>
<filter id="filter0_f_1318_6" x="0" y="0" width="148.578" height="22" filterUnits="userSpaceOnUse" color-interpolation-filters="sRGB">
<feFlood flood-opacity="0" result="BackgroundImageFix"/>
<feBlend mode="normal" in="SourceGraphic" in2="BackgroundImageFix" result="shape"/>
<feGaussianBlur stdDeviation="2" result="effect1_foregroundBlur_1318_6"/>
</filter>
</defs>
</svg>
