<svg width="78" height="26" viewBox="0 0 78 26" fill="none" xmlns="http://www.w3.org/2000/svg">
<path d="M11.1013 7.526C11.5773 6.966 11.8713 6.322 11.8713 5.692C11.8713 4.208 11.1853 3.2 8.95932 3.2H0.419324V13H9.37932C11.6053 13 12.5713 11.712 12.5713 10.102C12.5713 9.038 11.9553 8.142 11.1013 7.526ZM4.05932 5.58H7.41932C7.78332 5.58 8.23132 5.58 8.23132 6.112C8.23132 6.644 7.78332 6.644 7.41932 6.644H4.05932V5.58ZM8.11932 10.34H4.05932V9.304H8.11932C8.48332 9.304 8.93132 9.304 8.93132 9.822C8.93132 10.34 8.48332 10.34 8.11932 10.34ZM17.8041 9.92V3.2H14.1641V13H24.2441V9.92H17.8041ZM31.8508 13.14C36.1488 13.14 38.0108 11.488 38.0108 8.086C38.0108 4.698 36.1488 3.06 31.8508 3.06C27.5388 3.06 25.6908 4.684 25.6908 8.086C25.6908 11.502 27.5388 13.14 31.8508 13.14ZM31.8508 10.06C29.7088 10.06 29.3308 9.136 29.3308 8.086C29.3308 7.05 29.6948 6.14 31.8508 6.14C34.0068 6.14 34.3708 7.064 34.3708 8.086C34.3708 9.122 33.9928 10.06 31.8508 10.06ZM52.9309 3.2H47.7509L43.2429 7.036V3.2H39.6029V13H43.2429V11.138L44.7549 9.892L47.8909 13H52.9309L47.2889 7.82L52.9309 3.2ZM67.7148 3.2H62.5348L58.0268 7.036V3.2H54.3868V13H58.0268V11.138L59.5388 9.892L62.6748 13H67.7148L62.0728 7.82L67.7148 3.2Z" fill="#E3E3ED"/>
<path d="M74.1217 3.206H71.6257V3.842H72.4957V5.234H73.2517V3.842H74.1217V3.206ZM77.3737 3.206H76.4437L75.8197 4.364L75.1897 3.206H74.2657V5.234H75.0157V4.262L75.5737 5.234H76.0657L76.6177 4.274V5.234H77.3737V3.206Z" fill="#E3E3ED"/>
<path opacity="0.5" d="M15.8244 22.9609H14.3786L13.9137 24H12.8986L15.3424 19.0234H16.1935L16.884 24H15.9235L15.8244 22.9609ZM14.7511 22.144H15.7458L15.5715 20.3223L14.7511 22.144ZM20.6973 22.6772C20.7132 22.5588 20.7007 22.4574 20.6597 22.373C20.6209 22.2887 20.5651 22.2158 20.4922 22.1543C20.417 22.0951 20.3315 22.0449 20.2358 22.0039C20.1401 21.9629 20.0456 21.9264 19.9521 21.8945C19.7744 21.8376 19.599 21.7658 19.4258 21.6792C19.2549 21.5903 19.1034 21.4844 18.9712 21.3613C18.839 21.2383 18.7342 21.0947 18.6567 20.9307C18.5815 20.7643 18.5508 20.5752 18.5645 20.3633C18.5781 20.1263 18.6431 19.9189 18.7593 19.7412C18.8755 19.5635 19.0213 19.4154 19.1968 19.2969C19.3722 19.1784 19.5671 19.0907 19.7812 19.0337C19.9977 18.9767 20.2142 18.9505 20.4307 18.9551C20.6562 18.9596 20.8647 18.9984 21.0562 19.0713C21.2476 19.1442 21.4116 19.2467 21.5483 19.3789C21.6851 19.5111 21.7899 19.6706 21.8628 19.8574C21.938 20.0443 21.9722 20.2539 21.9653 20.4863L21.0562 20.4829C21.0584 20.3713 21.0448 20.2687 21.0151 20.1753C20.9878 20.0819 20.9456 20.0021 20.8887 19.936C20.8294 19.87 20.7554 19.8187 20.6665 19.7822C20.5799 19.7458 20.4774 19.7264 20.3589 19.7241C20.2586 19.7218 20.1584 19.7344 20.0581 19.7617C19.9601 19.7868 19.8701 19.8255 19.7881 19.8779C19.7061 19.9326 19.6366 20.001 19.5796 20.083C19.5226 20.1628 19.4873 20.2573 19.4736 20.3667C19.46 20.4829 19.4793 20.582 19.5317 20.6641C19.5841 20.7438 19.6548 20.811 19.7437 20.8657C19.8302 20.9227 19.9248 20.9705 20.0273 21.0093C20.1299 21.0457 20.2233 21.0776 20.3076 21.105C20.4876 21.1665 20.6597 21.244 20.8237 21.3374C20.9878 21.4285 21.1313 21.5379 21.2544 21.6655C21.3752 21.7931 21.4686 21.9412 21.5347 22.1099C21.603 22.2762 21.6304 22.4631 21.6167 22.6704C21.6007 22.9097 21.5369 23.1147 21.4253 23.2856C21.3136 23.4543 21.1758 23.599 21.0117 23.7197C20.8408 23.8473 20.6437 23.9385 20.4204 23.9932C20.1994 24.0456 19.9772 24.0695 19.7539 24.0649C19.5146 24.0604 19.2913 24.0216 19.084 23.9487C18.8766 23.8735 18.6966 23.7664 18.5439 23.6274C18.3913 23.4884 18.2728 23.321 18.1885 23.125C18.1064 22.9268 18.0688 22.7023 18.0757 22.4517L18.9917 22.4551C18.9871 22.5895 19.002 22.7091 19.0361 22.814C19.0703 22.9188 19.1216 23.0076 19.1899 23.0806C19.256 23.1512 19.3415 23.2059 19.4463 23.2446C19.5511 23.2811 19.6719 23.3005 19.8086 23.3027C19.9089 23.3027 20.008 23.2913 20.106 23.2686C20.2062 23.2435 20.2974 23.2048 20.3794 23.1523C20.4614 23.1022 20.5309 23.0384 20.5879 22.9609C20.6449 22.8812 20.6813 22.7866 20.6973 22.6772ZM26.4622 21.9458H22.7469L22.9246 21.1699H26.64L26.4622 21.9458ZM29.6261 24H28.6896L29.3493 20.2026L28.0505 20.6504L28.2008 19.7891L30.3986 19.0234H30.467L29.6261 24ZM35.251 24H31.9561L32.062 23.3164L33.8599 21.6177C33.9396 21.5402 34.0262 21.457 34.1196 21.3682C34.2131 21.2793 34.3019 21.1836 34.3862 21.0811C34.4683 20.9808 34.5389 20.876 34.5981 20.7666C34.6597 20.6572 34.6984 20.5433 34.7144 20.4248C34.7257 20.3337 34.7235 20.2482 34.7075 20.1685C34.6938 20.0864 34.6665 20.0146 34.6255 19.9531C34.5822 19.8916 34.5252 19.8426 34.4546 19.8062C34.3862 19.7674 34.3031 19.7458 34.2051 19.7412C34.0752 19.7389 33.959 19.7583 33.8564 19.7993C33.7562 19.8403 33.6707 19.8984 33.6001 19.9736C33.5272 20.0488 33.4691 20.1377 33.4258 20.2402C33.3825 20.3428 33.3529 20.4544 33.3369 20.5752L32.4106 20.5786C32.4289 20.3348 32.4927 20.1126 32.6021 19.9121C32.7137 19.7116 32.8561 19.5396 33.0293 19.396C33.2002 19.2524 33.395 19.1419 33.6138 19.0645C33.8325 18.987 34.0615 18.9505 34.3008 18.9551C34.5127 18.9596 34.7052 18.9961 34.8784 19.0645C35.0516 19.1328 35.1986 19.2285 35.3193 19.3516C35.4378 19.4769 35.5256 19.6273 35.5825 19.8027C35.6418 19.9759 35.6623 20.1707 35.644 20.3872C35.6281 20.5832 35.5768 20.7677 35.4902 20.9409C35.4036 21.1118 35.2977 21.2725 35.1724 21.4229C35.047 21.5755 34.9115 21.7202 34.7656 21.8569C34.6198 21.9914 34.4797 22.1213 34.3452 22.2466L33.2822 23.2378H35.374L35.251 24ZM40.2332 22.103C40.2059 22.283 40.166 22.4596 40.1136 22.6328C40.0635 22.8037 39.9997 22.9644 39.9222 23.1147C39.847 23.2606 39.7581 23.3939 39.6556 23.5146C39.5531 23.6354 39.4368 23.738 39.307 23.8223C39.1816 23.9043 39.0415 23.967 38.8866 24.0103C38.7316 24.0558 38.5618 24.0763 38.3773 24.0718C38.1016 24.0649 37.8737 24.0034 37.6937 23.8872C37.5137 23.771 37.3747 23.6206 37.2767 23.436C37.222 23.3358 37.1776 23.2275 37.1434 23.1113C37.1115 22.9951 37.0898 22.8755 37.0784 22.7524C37.0671 22.6499 37.0625 22.5439 37.0648 22.4346C37.0671 22.3252 37.075 22.2158 37.0887 22.1064L37.2733 20.917C37.3097 20.6618 37.3724 20.4146 37.4613 20.1753C37.5524 19.936 37.6732 19.7241 37.8236 19.5396C37.8828 19.4689 37.9466 19.4028 38.015 19.3413C38.0856 19.2798 38.1597 19.224 38.2371 19.1738C38.3602 19.1009 38.4958 19.0451 38.6439 19.0063C38.792 18.9653 38.9538 18.9471 39.1292 18.9517C39.3138 18.9562 39.4756 18.9858 39.6146 19.0405C39.7559 19.0952 39.8778 19.1681 39.9803 19.2593C40.0828 19.3527 40.1672 19.4621 40.2332 19.5874C40.2993 19.7104 40.3494 19.8438 40.3836 19.9873C40.4178 20.1309 40.4372 20.2824 40.4417 20.4419C40.4486 20.5991 40.4417 20.7575 40.4212 20.917L40.2332 22.103ZM39.0506 19.7173C38.9595 19.7127 38.8774 19.7241 38.8045 19.7515C38.7339 19.7765 38.6701 19.8118 38.6131 19.8574C38.5812 19.8848 38.5516 19.9155 38.5243 19.9497C38.4969 19.9839 38.4718 20.0192 38.4491 20.0557C38.3853 20.1605 38.3363 20.2756 38.3021 20.4009C38.2702 20.5262 38.2463 20.647 38.2303 20.7632L38.1175 21.4707C38.1038 21.555 38.0959 21.6051 38.0936 21.6211C38.0913 21.637 38.089 21.6507 38.0868 21.6621L39.5155 20.6982C39.5269 20.6003 39.5326 20.4954 39.5326 20.3838C39.5348 20.2721 39.5223 20.1673 39.495 20.0693C39.4653 19.9714 39.4163 19.8893 39.348 19.8232C39.2796 19.7572 39.1805 19.7218 39.0506 19.7173ZM38.4525 23.3096C38.5368 23.3141 38.612 23.3073 38.6781 23.2891C38.7441 23.2708 38.8057 23.2389 38.8626 23.1934C38.9264 23.141 38.9823 23.0783 39.0301 23.0054C39.0802 22.9325 39.1201 22.8561 39.1497 22.7764C39.1816 22.6921 39.2078 22.6055 39.2284 22.5166C39.2489 22.4255 39.2659 22.3377 39.2796 22.2534L39.3822 21.604C39.389 21.5607 39.3936 21.5254 39.3958 21.498C39.4004 21.4707 39.4072 21.4342 39.4163 21.3887L37.9774 22.356C37.9683 22.4517 37.9637 22.5542 37.9637 22.6636C37.966 22.7729 37.9819 22.8743 38.0116 22.9678C38.0412 23.0635 38.0902 23.1432 38.1585 23.207C38.2269 23.2708 38.3249 23.305 38.4525 23.3096ZM44.925 22.103C44.8976 22.283 44.8577 22.4596 44.8053 22.6328C44.7552 22.8037 44.6914 22.9644 44.6139 23.1147C44.5387 23.2606 44.4499 23.3939 44.3473 23.5146C44.2448 23.6354 44.1286 23.738 43.9987 23.8223C43.8734 23.9043 43.7332 23.967 43.5783 24.0103C43.4233 24.0558 43.2536 24.0763 43.069 24.0718C42.7933 24.0649 42.5654 24.0034 42.3854 23.8872C42.2054 23.771 42.0664 23.6206 41.9684 23.436C41.9137 23.3358 41.8693 23.2275 41.8351 23.1113C41.8032 22.9951 41.7816 22.8755 41.7702 22.7524C41.7588 22.6499 41.7542 22.5439 41.7565 22.4346C41.7588 22.3252 41.7668 22.2158 41.7804 22.1064L41.965 20.917C42.0015 20.6618 42.0641 20.4146 42.153 20.1753C42.2441 19.936 42.3649 19.7241 42.5153 19.5396C42.5745 19.4689 42.6383 19.4028 42.7067 19.3413C42.7773 19.2798 42.8514 19.224 42.9289 19.1738C43.0519 19.1009 43.1875 19.0451 43.3356 19.0063C43.4837 18.9653 43.6455 18.9471 43.821 18.9517C44.0055 18.9562 44.1673 18.9858 44.3063 19.0405C44.4476 19.0952 44.5695 19.1681 44.672 19.2593C44.7746 19.3527 44.8589 19.4621 44.925 19.5874C44.991 19.7104 45.0412 19.8438 45.0754 19.9873C45.1095 20.1309 45.1289 20.2824 45.1335 20.4419C45.1403 20.5991 45.1335 20.7575 45.113 20.917L44.925 22.103ZM43.7423 19.7173C43.6512 19.7127 43.5692 19.7241 43.4963 19.7515C43.4256 19.7765 43.3618 19.8118 43.3048 19.8574C43.2729 19.8848 43.2433 19.9155 43.216 19.9497C43.1886 19.9839 43.1636 20.0192 43.1408 20.0557C43.077 20.1605 43.028 20.2756 42.9938 20.4009C42.9619 20.5262 42.938 20.647 42.922 20.7632L42.8092 21.4707C42.7956 21.555 42.7876 21.6051 42.7853 21.6211C42.783 21.637 42.7808 21.6507 42.7785 21.6621L44.2072 20.6982C44.2186 20.6003 44.2243 20.4954 44.2243 20.3838C44.2266 20.2721 44.214 20.1673 44.1867 20.0693C44.1571 19.9714 44.1081 19.8893 44.0397 19.8232C43.9714 19.7572 43.8722 19.7218 43.7423 19.7173ZM43.1442 23.3096C43.2285 23.3141 43.3037 23.3073 43.3698 23.2891C43.4359 23.2708 43.4974 23.2389 43.5544 23.1934C43.6182 23.141 43.674 23.0783 43.7218 23.0054C43.772 22.9325 43.8118 22.8561 43.8415 22.7764C43.8734 22.6921 43.8996 22.6055 43.9201 22.5166C43.9406 22.4255 43.9577 22.3377 43.9714 22.2534L44.0739 21.604C44.0807 21.5607 44.0853 21.5254 44.0876 21.498C44.0921 21.4707 44.099 21.4342 44.1081 21.3887L42.6691 22.356C42.66 22.4517 42.6554 22.5542 42.6554 22.6636C42.6577 22.7729 42.6737 22.8743 42.7033 22.9678C42.7329 23.0635 42.7819 23.1432 42.8503 23.207C42.9186 23.2708 43.0166 23.305 43.1442 23.3096ZM53.4813 22.4893C53.4676 22.6169 53.4369 22.7308 53.389 22.8311C53.3434 22.9313 53.283 23.0156 53.2078 23.084C53.1327 23.1546 53.0426 23.2082 52.9378 23.2446C52.8353 23.2811 52.7179 23.297 52.5858 23.2925C52.4468 23.2902 52.3272 23.2606 52.2269 23.2036C52.1289 23.1466 52.0492 23.0726 51.9876 22.9814C51.9238 22.8926 51.8783 22.79 51.8509 22.6738C51.8258 22.5553 51.8167 22.4323 51.8236 22.3047L51.8509 21.9971C51.8646 21.8626 51.8953 21.735 51.9432 21.6143C51.9933 21.4912 52.0594 21.3841 52.1414 21.293C52.2235 21.2018 52.3215 21.13 52.4354 21.0776C52.5493 21.0229 52.6792 20.9967 52.825 20.999C52.9504 21.0013 53.0609 21.0218 53.1566 21.0605C53.2546 21.097 53.3366 21.1483 53.4027 21.2144C53.4688 21.285 53.5177 21.3716 53.5496 21.4741C53.5815 21.5744 53.5941 21.6883 53.5872 21.8159L53.1942 21.8125C53.1965 21.7419 53.1919 21.6781 53.1805 21.6211C53.1714 21.5641 53.152 21.5151 53.1224 21.4741C53.0928 21.4331 53.0518 21.4012 52.9994 21.3784C52.9492 21.3556 52.8854 21.3442 52.8079 21.3442C52.7168 21.3442 52.6382 21.3636 52.5721 21.4023C52.506 21.4388 52.4513 21.4878 52.408 21.5493C52.3625 21.6108 52.326 21.6803 52.2987 21.7578C52.2736 21.8353 52.2565 21.9139 52.2474 21.9937L52.2201 22.3081C52.2155 22.3787 52.2166 22.4517 52.2235 22.5269C52.2303 22.5998 52.2474 22.667 52.2747 22.7285C52.3021 22.79 52.342 22.8413 52.3944 22.8823C52.4468 22.9233 52.5163 22.945 52.6029 22.9473C52.6803 22.9495 52.7464 22.9404 52.8011 22.9199C52.8581 22.8994 52.9059 22.8687 52.9447 22.8276C52.9834 22.7866 53.0153 22.7376 53.0404 22.6807C53.0654 22.6237 53.0859 22.561 53.1019 22.4927L53.4813 22.4893ZM51.2869 22.1748C51.2642 22.3685 51.2744 22.5588 51.3177 22.7456C51.361 22.9325 51.4351 23.0999 51.5399 23.248C51.6424 23.3962 51.7734 23.5169 51.9329 23.6104C52.0925 23.7015 52.2782 23.7493 52.4901 23.7539C52.7157 23.7607 52.9264 23.7197 53.1224 23.6309C53.3184 23.5397 53.4927 23.4178 53.6453 23.2651C53.7957 23.1125 53.9188 22.937 54.0145 22.7388C54.1102 22.5382 54.1706 22.332 54.1956 22.1201C54.2184 21.9264 54.207 21.7373 54.1615 21.5527C54.1182 21.3682 54.0452 21.2018 53.9427 21.0537C53.8402 20.9079 53.7091 20.7894 53.5496 20.6982C53.3901 20.6071 53.2067 20.5592 52.9994 20.5547C52.7738 20.5479 52.5619 20.5889 52.3636 20.6777C52.1676 20.7666 51.9945 20.8862 51.8441 21.0366C51.6914 21.187 51.5661 21.3613 51.4681 21.5596C51.3701 21.7555 51.3097 21.9606 51.2869 22.1748ZM50.9759 22.1748C50.9941 22.0039 51.0317 21.8364 51.0887 21.6724C51.1457 21.5083 51.2197 21.3534 51.3109 21.2075C51.402 21.064 51.508 20.9318 51.6287 20.811C51.7495 20.688 51.8828 20.5832 52.0286 20.4966C52.1722 20.41 52.326 20.3439 52.4901 20.2983C52.6564 20.2505 52.8296 20.2288 53.0096 20.2334C53.1782 20.238 53.3343 20.2653 53.4779 20.3154C53.6214 20.3656 53.7513 20.4351 53.8675 20.5239C53.9837 20.6105 54.0851 20.7131 54.1717 20.8315C54.2606 20.95 54.3324 21.0776 54.387 21.2144C54.4417 21.3534 54.4793 21.5003 54.4998 21.6553C54.5226 21.8079 54.526 21.9629 54.5101 22.1201C54.4919 22.291 54.4543 22.4585 54.3973 22.6226C54.3403 22.7866 54.2674 22.9416 54.1786 23.0874C54.0874 23.2332 53.9803 23.3677 53.8573 23.4907C53.7365 23.6115 53.6043 23.7152 53.4608 23.8018C53.3149 23.8883 53.1589 23.9556 52.9925 24.0034C52.8285 24.0513 52.6576 24.0729 52.4798 24.0684C52.2269 24.0615 52.0013 24.0046 51.8031 23.8975C51.6071 23.7881 51.4442 23.6445 51.3143 23.4668C51.1821 23.2913 51.0864 23.092 51.0272 22.8687C50.9679 22.6431 50.9508 22.4118 50.9759 22.1748Z" fill="#E3E3ED"/>
</svg>
