<svg width="400" height="53" viewBox="0 0 400 53" fill="none" xmlns="http://www.w3.org/2000/svg">
<path d="M55.5238 23.2137C57.998 20.3029 59.5261 16.9555 59.5261 13.6808C59.5261 5.96717 55.9604 0.727703 44.3899 0.727703H0V51.6669H46.573C58.1435 51.6669 63.1647 44.9721 63.1647 36.6035C63.1647 31.0729 59.9628 26.4156 55.5238 23.2137ZM18.9203 13.0987H36.3852C38.2772 13.0987 40.6059 13.0987 40.6059 15.8639C40.6059 18.6292 38.2772 18.6292 36.3852 18.6292H18.9203V13.0987ZM40.0237 37.8406H18.9203V32.4556H40.0237C41.9157 32.4556 44.2444 32.4556 44.2444 35.1481C44.2444 37.8406 41.9157 37.8406 40.0237 37.8406Z" fill="#E3E3ED"/>
<path d="M90.3641 35.6575V0.727703H71.4438V51.6669H123.838V35.6575H90.3641Z" fill="#E3E3ED"/>
<path d="M163.377 52.3947C185.717 52.3947 195.396 43.8077 195.396 26.1246C195.396 8.51413 185.717 0 163.377 0C140.964 0 131.358 8.44136 131.358 26.1246C131.358 43.8805 140.964 52.3947 163.377 52.3947ZM163.377 36.3852C152.243 36.3852 150.278 31.5823 150.278 26.1246C150.278 20.7395 152.17 16.0095 163.377 16.0095C174.584 16.0095 176.476 20.8123 176.476 26.1246C176.476 31.5096 174.511 36.3852 163.377 36.3852Z" fill="#E3E3ED"/>
<path d="M272.949 0.727703H246.024L222.592 20.6668V0.727703H203.672V51.6669H222.592V41.9885L230.451 35.5119L246.752 51.6669H272.949L243.623 24.7419L272.949 0.727703Z" fill="#E3E3ED"/>
<path d="M349.794 0.727703H322.869L299.437 20.6668V0.727703H280.516V51.6669H299.437V41.9885L307.296 35.5119L323.596 51.6669H349.794L320.467 24.7419L349.794 0.727703Z" fill="#E3E3ED"/>
<path d="M383.096 0.75885H370.123V4.0647H374.645V11.3002H378.574V4.0647H383.096V0.75885ZM400 0.75885H395.166L391.922 6.778L388.648 0.75885H383.845V11.3002H387.743V6.24781L390.644 11.3002H393.201L396.07 6.31019V11.3002H400V0.75885Z" fill="#E3E3ED"/>
</svg>
