<svg width="200" height="200" viewBox="0 0 200 200" fill="none" xmlns="http://www.w3.org/2000/svg">
<path d="M162.605 82.6502C150.583 94.6719 131.378 95.1267 118.81 84.0188L139.977 62.8512C140.758 62.0701 140.758 60.8038 139.977 60.0228C139.196 59.2417 137.93 59.2417 137.149 60.0228L115.981 81.1904C104.873 68.6224 105.328 49.4171 117.35 37.3953C129.847 24.8986 150.108 24.8986 162.605 37.3953C175.101 49.8921 175.101 70.1534 162.605 82.6502Z" fill="#E3E3ED"/>
<path d="M37.3954 37.3498C49.4171 25.328 68.6224 24.8733 81.1904 35.9812L60.0228 57.1488C59.2417 57.9298 59.2417 59.1962 60.0228 59.9772C60.8038 60.7583 62.0702 60.7583 62.8512 59.9772L84.0188 38.8096C95.1267 51.3776 94.672 70.5829 82.6502 82.6046C70.1534 95.1014 49.8921 95.1014 37.3954 82.6046C24.8986 70.1079 24.8986 49.8466 37.3954 37.3498Z" fill="#E3E3ED"/>
<path d="M140.032 108C157.034 108 170.935 121.259 171.968 138H142.032C140.928 138 140.032 138.895 140.032 140C140.032 141.105 140.928 142 142.032 142H171.968C170.935 158.741 157.034 172 140.032 172C122.359 172 108.032 157.673 108.032 140C108.032 122.327 122.359 108 140.032 108Z" fill="#E3E3ED"/>
<path d="M37.3498 162.605C25.328 150.583 24.8733 131.378 35.9811 118.81L57.1488 139.977C57.9298 140.758 59.1962 140.758 59.9772 139.977C60.7583 139.196 60.7583 137.93 59.9772 137.149L38.8096 115.981C51.3776 104.873 70.5829 105.328 82.6046 117.35C95.1014 129.847 95.1014 150.108 82.6046 162.605C70.1078 175.101 49.8466 175.101 37.3498 162.605Z" fill="#E3E3ED"/>
</svg>
