<svg width="47" height="11" viewBox="0 0 47 11" fill="none" xmlns="http://www.w3.org/2000/svg">
<g opacity="0.2">
<path d="M41.2696 1.85639C40.2478 1.85639 39.4678 2.37899 38.9842 3.11999C38.9764 3.13559 39.85 3.43979 39.8422 5.06998C39.8266 6.86397 39.0076 7.06677 39.0076 7.06677C39.4444 7.76877 40.1698 8.28357 41.2774 8.28357C43.36 8.28357 44.0932 6.45837 44.0932 4.97638C44.0854 3.42419 43.0402 1.85639 41.2696 1.85639ZM41.2696 10.1322C39.5848 10.1322 38.2666 9.39116 37.4476 8.22117C37.5334 8.16657 40.084 7.95597 40.1386 5.28058C40.1932 2.47259 37.4164 1.95779 37.4164 1.95779C38.134 0.811197 39.5848 0 41.2696 0C44.14 0 46.0276 2.19179 46.0276 5.05438C46.0276 7.88577 44.2024 10.1322 41.2696 10.1322Z" fill="white" fill-opacity="0.5"/>
<path d="M4.92178 2.40239C4.56298 1.9188 4.10278 1.6146 3.47879 1.6146C2.87819 1.6146 2.30879 2.0748 2.30879 2.69879C2.30879 4.32119 6.12298 3.64259 6.12298 6.87178C6.12298 8.79837 4.92178 10.1634 2.95619 10.1634C1.63019 10.1634 0.662997 9.39897 0 8.29137L1.209 7.09798C1.46639 7.83897 2.13719 8.50197 2.94059 8.50197C3.70499 8.50197 4.18078 7.85458 4.18078 7.11358C4.18078 6.11518 3.26039 5.83438 2.51159 5.54578C1.27139 5.03879 0.366599 4.40699 0.366599 2.91719C0.366599 1.326 1.55219 0.0312042 3.17459 0.0312042C4.03258 0.0312042 5.21818 0.452404 5.80318 1.0998L4.92178 2.40239Z" fill="white"/>
<path d="M10.2257 9.90597H8.35375V1.9188H6.41156V0.288605H12.1679V1.9188H10.2257V9.90597Z" fill="white"/>
<path d="M14.7263 1.9188V4.03259H17.7137V5.67058H14.7263V8.26797H17.8307V9.90597H12.8543V0.288605H17.8307V1.9188H14.7263Z" fill="white"/>
<path d="M20.9507 4.71119H21.1925C22.2221 4.71119 22.9553 4.40699 22.9553 3.22919C22.9553 2.0436 22.1987 1.8096 21.2081 1.8096H20.9507V4.71119ZM25.5839 9.90597H23.3141L20.9819 6.02938H20.9507V9.90597H19.0787V0.288605H21.6137C23.5169 0.288605 24.8273 1.131 24.8273 3.18239C24.8273 4.40699 24.1487 5.63158 22.8617 5.84998L25.5839 9.90597Z" fill="white"/>
<path d="M28.0721 1.9188V4.03259H31.0595V5.67058H28.0721V8.26797H31.1687V9.90597H26.2001V0.288605H31.1687V1.9188H28.0721Z" fill="white"/>
<path d="M36.7223 1.8798C34.9517 1.8798 33.9065 3.4476 33.9065 5.00759C33.9065 6.48958 34.6475 8.31478 36.7223 8.31478C38.8049 8.31478 39.5381 6.48958 39.5381 5.00759C39.5381 3.4476 38.4929 1.8798 36.7223 1.8798ZM36.7223 10.1556C33.7895 10.1556 31.9643 7.90918 31.9643 5.07779C31.9643 2.223 33.8519 0.023407 36.7223 0.023407C39.5927 0.023407 41.4803 2.2152 41.4803 5.07779C41.4803 7.90918 39.6551 10.1556 36.7223 10.1556Z" fill="white"/>
<path d="M46.012 0.725408H46.129C46.2226 0.725408 46.246 0.655209 46.246 0.616209C46.246 0.51481 46.1758 0.514811 46.1368 0.514811H46.012V0.725408ZM45.8638 0.390011H46.1212C46.2148 0.390011 46.3864 0.390011 46.3864 0.59281C46.3864 0.73321 46.2928 0.764409 46.246 0.780009C46.3474 0.787809 46.3552 0.85801 46.3708 0.951609C46.3786 1.01401 46.3864 1.11541 46.4098 1.15441H46.246C46.246 1.11541 46.2148 0.928209 46.2148 0.912609C46.207 0.86581 46.1914 0.850208 46.1368 0.850208H46.0042V1.15441H45.856V0.390011H45.8638ZM45.5518 0.772209C45.5518 1.08421 45.8092 1.34161 46.1134 1.34161C46.4254 1.34161 46.6828 1.08421 46.6828 0.772209C46.6828 0.46021 46.4254 0.202812 46.1134 0.202812C45.8092 0.202812 45.5518 0.45241 45.5518 0.772209ZM46.792 0.772209C46.792 1.14661 46.4878 1.45081 46.1134 1.45081C45.7468 1.45081 45.4348 1.15441 45.4348 0.772209C45.4348 0.39001 45.7468 0.0936127 46.1134 0.0936127C46.48 0.0936127 46.792 0.39001 46.792 0.772209Z" fill="white" fill-opacity="0.5"/>
</g>
</svg>
